<svg xmlns="http://www.w3.org/2000/svg" xmlns:xlink="http://www.w3.org/1999/xlink" width="1920" zoomAndPan="magnify" viewBox="0 0 1440 809.999993" height="1080" preserveAspectRatio="xMidYMid meet" version="1.0"><defs><g/><clipPath id="739b24e93f"><path d="M 76.234375 325.632812 L 280 325.632812 L 280 482.382812 L 76.234375 482.382812 Z M 76.234375 325.632812 " clip-rule="nonzero"/></clipPath><clipPath id="89b238d841"><path d="M 196 428 L 274 428 L 274 482.382812 L 196 482.382812 Z M 196 428 " clip-rule="nonzero"/></clipPath><clipPath id="95e2d2be9a"><path d="M 230 482 L 233 482 L 233 482.382812 L 230 482.382812 Z M 230 482 " clip-rule="nonzero"/></clipPath><clipPath id="af7263e705"><path d="M 107 421 L 173 421 L 173 482.382812 L 107 482.382812 Z M 107 421 " clip-rule="nonzero"/></clipPath><clipPath id="fc8ccff631"><path d="M 279 473 L 280.984375 473 L 280.984375 482.382812 L 279 482.382812 Z M 279 473 " clip-rule="nonzero"/></clipPath><clipPath id="e86080db00"><path d="M 195 477 L 221 477 L 221 482.382812 L 195 482.382812 Z M 195 477 " clip-rule="nonzero"/></clipPath><clipPath id="08988ff4dd"><path d="M 221 481 L 229 481 L 229 482.382812 L 221 482.382812 Z M 221 481 " clip-rule="nonzero"/></clipPath><clipPath id="145fa45da5"><rect x="0" width="200" y="0" height="78"/></clipPath><clipPath id="21fceec055"><path d="M 882.304688 432.105469 L 893.871094 432.105469 L 893.871094 449.023438 L 882.304688 449.023438 Z M 882.304688 432.105469 " clip-rule="nonzero"/></clipPath><clipPath id="b830107466"><path d="M 0.304688 0.105469 L 11.871094 0.105469 L 11.871094 17.023438 L 0.304688 17.023438 Z M 0.304688 0.105469 " clip-rule="nonzero"/></clipPath><clipPath id="6c6d67400a"><rect x="0" width="12" y="0" height="18"/></clipPath><clipPath id="c02a21a00f"><rect x="0" width="567" y="0" height="77"/></clipPath></defs><path fill="#1a3e6e" d="M 174.875 411.316406 L 177.792969 410.179688 L 181.417969 407.476562 L 185.472656 405.203125 L 185.039062 403.636719 L 183.253906 403.421875 L 183.039062 403.636719 C 183.039062 403.421875 183.253906 403.421875 183.253906 403.421875 L 182.121094 402.066406 L 179.847656 401.363281 C 179.847656 401.363281 178.28125 400.011719 177.792969 402.066406 L 176.007812 401.851562 L 175.089844 401.417969 L 174.386719 401.851562 L 173.25 402.769531 L 171.683594 402.339844 L 171.898438 403.257812 L 169.84375 402.824219 L 169.140625 402.824219 L 168.003906 403.960938 L 168.222656 405.527344 L 168.652344 406.882812 L 170.710938 407.585938 L 173.898438 407.367188 L 174.601562 408.070312 L 174.601562 408.289062 L 170.332031 408.503906 C 170.113281 411.695312 170.332031 406.015625 167.625 408.503906 L 166.921875 404.878906 L 166.003906 404.449219 L 164.652344 405.800781 L 163.300781 406.933594 C 163.515625 406.933594 163.734375 407.152344 163.734375 407.367188 L 161.949219 408.9375 L 162.867188 410.070312 L 162.652344 412.992188 L 164.21875 412.777344 L 165.570312 411.855469 L 164.867188 413.640625 L 164.867188 414.34375 L 163.734375 415.695312 L 161.246094 416.398438 L 160.542969 416.832031 L 163.949219 417.96875 L 166.21875 418.886719 L 168.492188 417.535156 L 169.84375 415.480469 L 171.414062 414.777344 L 172.980469 413.207031 C 172.765625 412.992188 172.765625 412.992188 172.765625 412.777344 L 172.980469 412.074219 Z M 174.875 411.316406 " fill-opacity="1" fill-rule="nonzero"/><g clip-path="url(#739b24e93f)"><path fill="#1a3e6e" d="M 224.679688 395.6875 L 224.679688 389.574219 L 224.898438 377.355469 C 212.890625 369.890625 196.828125 366.050781 182.824219 365.347656 C 197.316406 364.914062 211.753906 368.050781 224.898438 374.648438 L 261.5625 360.15625 L 178.714844 325.761719 L 95.484375 358.804688 L 115.386719 367.1875 C 114.46875 372.59375 115.601562 379.191406 113.601562 386.871094 C 108.625 387.792969 107.921875 394.550781 111.332031 396.171875 L 106.570312 412.9375 L 108.140625 412.9375 C 89.589844 430.566406 77.585938 455.011719 76.234375 482.429688 L 89.589844 482.429688 C 90.292969 467.015625 94.566406 452.578125 101.8125 439.871094 C 106.355469 432.191406 111.546875 425.375 117.875 419.265625 C 135.070312 402.066406 158.8125 391.414062 185.039062 391.414062 C 213.539062 391.414062 239.121094 403.851562 256.75 423.539062 C 259.019531 426.242188 261.292969 429.214844 263.507812 432.136719 C 263.726562 432.570312 263.941406 433.054688 264.429688 433.488281 C 272.109375 445.007812 277.515625 458.257812 279.785156 472.695312 C 274.972656 439.113281 253.773438 410.613281 224.679688 395.6875 Z M 131.664062 388.925781 L 131.664062 396.171875 C 127.609375 398.230469 123.769531 400.714844 119.875 403.421875 L 118.523438 396.390625 C 121.226562 394.117188 121.011719 390.496094 118.523438 388.222656 C 120.792969 380.761719 118.957031 374.21875 119.875 368.972656 L 131.878906 373.945312 Z M 131.664062 388.925781 " fill-opacity="1" fill-rule="nonzero"/></g><g clip-path="url(#89b238d841)"><path fill="#1a3e6e" d="M 258.15625 437.816406 L 256.101562 438.734375 L 255.882812 438.515625 C 257.234375 438.949219 257.453125 437.164062 257.453125 436.03125 C 255.398438 433.324219 253.394531 430.621094 251.125 428.132812 L 250.910156 431.757812 L 252.261719 434.246094 L 252.964844 435.382812 L 245.71875 432.894531 L 245.71875 433.8125 L 247.773438 435.867188 L 246.421875 435.867188 L 243.011719 437.21875 L 242.796875 436.082031 L 238.957031 439.492188 L 236.46875 437.21875 C 234.414062 437.652344 236.035156 436.515625 236.035156 439.273438 L 235.605469 440.84375 L 234.035156 443.113281 L 231.980469 443.113281 L 232.414062 444.464844 L 231.277344 444.683594 L 230.359375 443.980469 L 228.085938 440.789062 C 228.789062 440.789062 233.980469 443.277344 234.414062 439.871094 L 227.871094 436.460938 L 226.519531 435.757812 L 224.949219 435.542969 L 224.03125 434.40625 L 222.679688 434.625 L 220.894531 434.40625 L 219.976562 434.839844 L 219.976562 434.625 L 219.542969 435.328125 L 217.488281 436.246094 L 217.269531 436.246094 C 217.054688 436.246094 216.839844 436.460938 216.566406 436.679688 L 215.214844 438.03125 L 214.242188 438.03125 L 214.242188 438.734375 L 215.8125 438.734375 L 214.890625 439.4375 L 213.972656 440.789062 L 212.402344 444.195312 L 210.347656 446.25 L 209.214844 447.171875 L 208.292969 448.089844 L 207.863281 451.710938 L 208.078125 452.847656 L 210.78125 453.28125 C 212.835938 450.359375 212.835938 454.417969 213.972656 455.769531 L 213.757812 456.203125 L 213.539062 457.554688 L 213.105469 457.554688 C 213.105469 457.554688 213.105469 457.554688 212.890625 457.554688 L 212.457031 455.769531 L 211.753906 454.417969 C 208.566406 455.984375 212.457031 459.609375 210.402344 459.175781 C 208.347656 458.742188 207.210938 461.445312 205.644531 462.367188 L 204.726562 463.503906 L 203.15625 463.71875 L 201.804688 464.636719 L 201.589844 465.988281 C 203.644531 466.421875 204.074219 471.667969 201.15625 470.316406 L 197.101562 470.53125 L 196.398438 470.964844 L 196.179688 475.507812 L 197.964844 477.074219 C 198.882812 477.074219 198.667969 478.859375 200.019531 477.777344 L 202.722656 477.074219 L 203.644531 476.371094 L 204.347656 475.238281 L 206.835938 471.832031 C 206.835938 469.125 209.105469 471.398438 209.539062 470.695312 L 212.945312 470.910156 L 213.160156 470.910156 L 215.433594 472.695312 C 217.21875 473.128906 220.191406 476.535156 215.433594 476.101562 L 217.488281 476.804688 L 218.40625 476.101562 L 219.757812 474.046875 L 218.191406 472.480469 L 217.269531 472.046875 C 217.269531 471.832031 213 468.855469 215.214844 468.207031 L 216.566406 469.125 L 219.273438 471.179688 L 221.058594 474.101562 L 222.410156 475.886719 C 222.410156 476.101562 222.410156 476.101562 222.410156 476.101562 L 222.410156 476.320312 L 223.976562 477.453125 L 225.328125 476.101562 L 223.976562 473.832031 L 225.113281 473.128906 C 225.328125 473.128906 227.382812 472.207031 226.679688 474.695312 L 226.679688 475.617188 L 227.382812 476.046875 L 227.816406 476.96875 L 231.007812 477.671875 C 231.710938 476.535156 232.792969 479.023438 234.414062 477.453125 L 235.765625 477.453125 L 235.332031 480.375 C 234.902344 481.511719 234.414062 482.160156 234.199219 482.429688 L 273.566406 482.429688 C 272.648438 465.664062 267.242188 450.308594 258.425781 437.164062 Z M 216.515625 436.679688 C 216.566406 436.734375 216.566406 436.734375 216.566406 436.734375 C 216.621094 436.734375 216.566406 436.734375 216.515625 436.679688 Z M 216.515625 436.679688 " fill-opacity="1" fill-rule="nonzero"/></g><path fill="#1a3e6e" d="M 279.839844 472.695312 C 279.894531 473.019531 279.949219 473.34375 279.949219 473.667969 C 279.894531 473.398438 279.894531 473.128906 279.839844 472.910156 C 279.839844 472.804688 279.839844 472.75 279.839844 472.695312 Z M 279.839844 472.695312 " fill-opacity="1" fill-rule="nonzero"/><g clip-path="url(#95e2d2be9a)"><path fill="#1a3e6e" d="M 230.792969 482.375 L 232.847656 482.375 C 232.359375 482.375 231.65625 481.941406 230.792969 482.375 Z M 230.792969 482.375 " fill-opacity="1" fill-rule="nonzero"/></g><g clip-path="url(#af7263e705)"><path fill="#1a3e6e" d="M 156.109375 433.054688 L 154.753906 434.191406 L 153.402344 434.40625 L 153.621094 431.703125 L 152.269531 432.839844 L 151.835938 430.566406 L 152.753906 429.433594 L 152.753906 425.59375 L 154.539062 424.457031 L 157.027344 421.96875 C 155.675781 421.753906 154.753906 419.480469 152.753906 423.539062 L 151.1875 426.023438 C 151.1875 426.023438 151.1875 426.242188 151.1875 426.457031 L 149.617188 430.082031 L 149.617188 430.296875 C 147.832031 430.296875 148.484375 428.511719 147.5625 429.863281 L 146.210938 431 C 146.425781 431.21875 146.914062 431.433594 147.128906 431.917969 L 144.859375 432.839844 L 142.804688 432.40625 L 141.453125 430.351562 L 138.75 430.351562 L 140.316406 431.054688 L 138.261719 432.839844 L 137.828125 433.054688 L 136.476562 431.269531 L 134.421875 429.917969 L 133.988281 428.351562 L 129.445312 425.648438 L 128.742188 424.726562 C 125.554688 427 128.742188 422.023438 127.175781 422.671875 L 125.605469 423.808594 L 122.6875 423.808594 C 117.007812 429.484375 112.035156 436.03125 107.976562 443.058594 L 108.410156 443.761719 L 109.113281 443.980469 L 108.195312 445.546875 L 108.898438 446.46875 C 109.113281 446.25 109.113281 446.25 109.328125 446.25 L 110.03125 446.035156 C 110.03125 446.035156 110.25 446.25 110.25 446.46875 L 109.328125 446.25 L 108.898438 446.46875 L 109.113281 447.601562 L 110.03125 448.738281 L 110.03125 448.953125 L 110.25 448.953125 L 110.464844 449.386719 L 110.898438 450.308594 L 110.195312 451.875 L 110.410156 452.308594 L 110.84375 453.441406 L 111.277344 454.578125 C 111.277344 454.578125 111.277344 454.578125 111.277344 454.796875 L 111.058594 455.714844 L 113.113281 457.5 L 113.332031 458.417969 L 111.980469 457.066406 L 110.410156 457.066406 L 112.683594 459.769531 L 111.761719 463.394531 L 110.195312 468.371094 L 109.761719 470.425781 L 110.464844 473.34375 L 110.679688 475.398438 L 113.386719 478.320312 L 115.167969 482.375 L 116.304688 482.375 C 116.089844 481.238281 116.089844 480.589844 117.007812 481.238281 L 117.710938 482.375 L 146.210938 482.375 C 146.210938 481.671875 146.644531 480.808594 147.996094 480.589844 L 150.917969 478.535156 L 151.835938 476.046875 L 152.050781 475.34375 L 153.1875 473.992188 L 155.457031 471.9375 L 155.675781 471.503906 L 157.460938 470.152344 C 158.378906 467.449219 161.082031 468.585938 161.515625 467.667969 L 162.433594 467.449219 C 160.867188 468.371094 162.003906 470.152344 163.355469 468.371094 L 166.273438 467.449219 L 167.410156 466.53125 L 166.058594 466.53125 L 165.355469 466.746094 C 165.140625 466.746094 164.921875 466.746094 164.921875 466.53125 L 165.355469 466.53125 L 164.21875 466.3125 L 163.085938 464.257812 C 165.570312 463.339844 163.300781 461.773438 160.378906 463.339844 L 163.785156 461.554688 L 169.464844 460.851562 L 172.167969 459.285156 L 171.519531 457.714844 L 170.601562 457.011719 L 169.464844 455.445312 L 168.761719 453.390625 L 167.195312 448.199219 C 164.273438 453.171875 163.136719 449.550781 163.136719 449.550781 C 163.355469 446.359375 164.921875 447.765625 162.433594 446.359375 L 160.652344 444.574219 L 157.460938 445.277344 L 157.027344 446.414062 L 156.8125 448.199219 C 154.753906 449.332031 155.890625 450.253906 156.378906 452.039062 C 156.8125 454.308594 152.972656 454.523438 152.972656 455.226562 L 151.835938 459.285156 L 150.484375 457.011719 C 152.539062 452.957031 149.5625 454.523438 148.699219 453.605469 L 144.644531 450.683594 C 144.210938 450.902344 143.941406 450.902344 143.507812 450.902344 L 143.292969 448.414062 L 146.914062 442.519531 L 148.265625 441.382812 L 150.320312 440.679688 L 153.511719 438.191406 L 152.160156 441.601562 L 153.296875 442.304688 C 155.785156 439.597656 154.863281 443.65625 156.703125 441.871094 L 154.429688 438.679688 L 154.429688 437.976562 L 153.726562 437.976562 L 154.648438 437.273438 L 158.269531 435.003906 L 158.269531 433.867188 L 159.40625 432.515625 L 158.488281 431.59375 C 158.488281 431.59375 158.269531 431.378906 158.269531 431.164062 C 158.054688 431.164062 157.839844 431.164062 157.566406 430.945312 Z M 159.949219 463.609375 C 159.949219 463.828125 159.949219 463.828125 159.949219 463.828125 L 159.515625 464.257812 L 158.8125 464.476562 Z M 159.949219 463.609375 " fill-opacity="1" fill-rule="nonzero"/></g><g clip-path="url(#fc8ccff631)"><path fill="#1a3e6e" d="M 279.949219 473.667969 C 280.328125 476.589844 280.542969 479.507812 280.761719 482.375 C 280.597656 479.457031 280.328125 476.535156 279.949219 473.667969 Z M 279.949219 473.667969 " fill-opacity="1" fill-rule="nonzero"/></g><path fill="#1a3e6e" d="M 172.167969 439.597656 L 171.738281 438.246094 C 171.738281 438.03125 171.738281 438.03125 171.738281 438.03125 L 171.035156 437.597656 L 170.601562 436.679688 L 168.816406 435.109375 L 169.953125 434.40625 L 170.167969 433.273438 L 168.113281 430.351562 C 169.03125 428.566406 165.625 429.917969 166.546875 428.566406 L 166.113281 427.214844 L 165.191406 426.511719 C 167.25 426.726562 165.625 424.457031 165.191406 424.457031 L 163.410156 424.671875 L 159.351562 426.242188 L 158.648438 427.59375 L 158.433594 426.242188 L 160.703125 423.753906 C 161.136719 423.539062 160.273438 421.96875 157.515625 423.96875 L 155.242188 427.808594 L 154.808594 428.730469 L 156.378906 430.515625 L 157.515625 430.945312 C 157.730469 430.945312 157.945312 430.945312 158.21875 431.164062 L 161.136719 431.867188 L 162.054688 430.945312 L 163.410156 433.21875 L 162.976562 434.136719 L 163.410156 434.570312 L 164.542969 435.003906 L 164.542969 437.273438 L 162.757812 439.546875 L 160.054688 439.546875 C 159.621094 439.328125 157.351562 441.816406 160.757812 441.113281 C 163.460938 440.679688 162.542969 443.601562 164.164062 444.035156 L 167.085938 445.167969 L 165.949219 443.113281 L 168.222656 445.167969 L 168.925781 443.113281 L 168.003906 440.84375 L 167.574219 439.492188 L 169.355469 440.84375 Z M 160.433594 431.488281 C 160.652344 431.488281 160.652344 431.488281 160.867188 431.703125 C 160.652344 431.703125 160.433594 431.703125 160.433594 431.488281 Z M 162.003906 430.785156 C 161.785156 430.785156 161.785156 430.566406 162.003906 430.566406 Z M 162.003906 430.785156 " fill-opacity="1" fill-rule="nonzero"/><path fill="#1a3e6e" d="M 200.238281 434.839844 L 200.667969 433.488281 C 201.804688 436.191406 202.941406 434.839844 202.941406 434.625 C 203.15625 431.433594 200.019531 430.785156 201.15625 430.082031 L 202.507812 431.648438 L 202.941406 431.21875 L 202.238281 429.863281 L 202.238281 429.648438 L 204.292969 428.511719 L 205.210938 427.160156 C 203.859375 426.023438 205.429688 426.726562 205.429688 425.105469 L 205.210938 424.1875 L 204.507812 423.753906 L 204.507812 423.105469 C 206.292969 421.320312 205.859375 425.160156 206.078125 424.242188 L 206.292969 421.753906 L 205.375 420.183594 L 206.292969 418.617188 L 208.078125 414.777344 L 208.078125 413.855469 L 209.863281 412.9375 C 209.644531 412.722656 212.351562 412.503906 211 411.152344 C 209.214844 409.097656 208.078125 411.585938 207.160156 410.9375 L 205.375 412.074219 L 203.804688 412.992188 L 204.507812 412.558594 C 204.507812 412.34375 208.347656 409.367188 205.644531 409.640625 L 203.371094 410.558594 L 203.371094 409.421875 L 201.101562 409.207031 L 207.210938 408.289062 L 204.941406 406.933594 L 204.726562 405.800781 L 202.019531 405.582031 L 199.101562 406.015625 L 204.507812 405.097656 C 204.292969 404.664062 199.75 402.394531 198.179688 404.394531 L 198.179688 404.609375 L 195.695312 404.609375 L 194.339844 406.179688 L 193.207031 407.746094 L 192.773438 408.449219 C 192.988281 408.015625 190.71875 404.125 190.71875 408.015625 L 189.800781 408.449219 L 189.367188 406.664062 L 188.933594 408.015625 L 188.933594 408.234375 L 188.71875 408.234375 L 188.5 408.449219 L 188.285156 408.664062 L 188.71875 408.234375 L 188.933594 408.015625 C 188.230469 406.882812 191.207031 405.960938 187.148438 406.449219 L 185.363281 407.367188 L 184.011719 407.800781 C 183.578125 410.289062 182.445312 408.015625 181.308594 409.367188 C 181.09375 409.585938 180.605469 409.800781 180.390625 409.800781 L 180.171875 409.800781 C 179.039062 411.152344 178.605469 411.152344 180.171875 411.585938 L 178.605469 413.640625 C 178.171875 413.425781 171.359375 413.855469 174.332031 416.34375 L 176.605469 417.480469 L 173.414062 418.617188 L 173.628906 419.96875 L 175.902344 420.886719 L 178.820312 421.589844 L 179.957031 424.078125 L 180.390625 425.214844 L 180.390625 428.621094 L 179.6875 429.972656 L 179.902344 430.1875 L 179.46875 431.324219 L 181.253906 431.109375 L 181.039062 431.324219 L 181.253906 431.324219 L 181.253906 432.894531 L 179.632812 432.894531 L 179.632812 435.382812 L 180.335938 433.8125 L 181.6875 434.949219 L 181.472656 435.867188 L 179.902344 436.570312 C 179.902344 436.785156 179.902344 437.003906 179.902344 437.273438 L 178.765625 439.546875 L 178.765625 443.167969 L 179.6875 443.167969 L 179.46875 445.222656 L 179.6875 446.359375 L 180.390625 448.144531 L 181.957031 448.578125 C 182.390625 448.359375 183.742188 452.199219 184.878906 448.578125 L 185.796875 446.519531 L 187.851562 442.898438 L 190.125 442.195312 L 193.964844 439.707031 C 195.097656 437.652344 196.882812 439.921875 202.34375 435.867188 Z M 200.238281 434.839844 " fill-opacity="1" fill-rule="nonzero"/><g clip-path="url(#e86080db00)"><path fill="#1a3e6e" d="M 213.59375 480.375 C 211.808594 479.671875 214.511719 479.941406 213.378906 478.101562 L 213.378906 477.183594 L 211.324219 477.183594 L 203.15625 478.753906 L 199.101562 478.535156 L 196.179688 481.726562 L 195.964844 482.429688 L 220.40625 482.429688 L 217.703125 481.726562 Z M 213.59375 480.375 " fill-opacity="1" fill-rule="nonzero"/></g><g clip-path="url(#08988ff4dd)"><path fill="#1a3e6e" d="M 221.707031 482.375 L 228.304688 482.375 C 225.328125 481.726562 221.273438 479.886719 221.707031 482.375 Z M 221.707031 482.375 " fill-opacity="1" fill-rule="nonzero"/></g><g transform="matrix(1, 0, 0, 1, 876, 410)"><g clip-path="url(#145fa45da5)"><g fill="#1a3e6e" fill-opacity="1"><g transform="translate(1.204958, 57.906063)"><g><path d="M 32.921875 -26.25 C 32.921875 -24.007812 32.40625 -21.957031 31.375 -20.09375 C 30.351562 -18.238281 28.773438 -16.742188 26.640625 -15.609375 C 24.503906 -14.472656 21.859375 -13.90625 18.703125 -13.90625 L 12.84375 -13.90625 L 12.84375 0 L 3.421875 0 L 3.421875 -38.71875 L 18.703125 -38.71875 C 21.785156 -38.71875 24.394531 -38.179688 26.53125 -37.109375 C 28.664062 -36.046875 30.265625 -34.578125 31.328125 -32.703125 C 32.390625 -30.828125 32.921875 -28.675781 32.921875 -26.25 Z M 17.984375 -21.40625 C 19.785156 -21.40625 21.125 -21.828125 22 -22.671875 C 22.882812 -23.515625 23.328125 -24.707031 23.328125 -26.25 C 23.328125 -27.800781 22.882812 -29 22 -29.84375 C 21.125 -30.6875 19.785156 -31.109375 17.984375 -31.109375 L 12.84375 -31.109375 L 12.84375 -21.40625 Z M 17.984375 -21.40625 "/></g></g></g><g fill="#1a3e6e" fill-opacity="1"><g transform="translate(35.616059, 57.906063)"><g><path d="M 12.84375 -25.640625 C 13.945312 -27.335938 15.328125 -28.671875 16.984375 -29.640625 C 18.640625 -30.617188 20.476562 -31.109375 22.5 -31.109375 L 22.5 -21.125 L 19.90625 -21.125 C 17.550781 -21.125 15.785156 -20.617188 14.609375 -19.609375 C 13.429688 -18.597656 12.84375 -16.820312 12.84375 -14.28125 L 12.84375 0 L 3.421875 0 L 3.421875 -30.78125 L 12.84375 -30.78125 Z M 12.84375 -25.640625 "/></g></g></g><g fill="#1a3e6e" fill-opacity="1"><g transform="translate(59.218543, 57.906063)"><g><path d="M 17.421875 0.4375 C 14.410156 0.4375 11.703125 -0.203125 9.296875 -1.484375 C 6.890625 -2.773438 4.992188 -4.613281 3.609375 -7 C 2.234375 -9.394531 1.546875 -12.191406 1.546875 -15.390625 C 1.546875 -18.546875 2.242188 -21.328125 3.640625 -23.734375 C 5.035156 -26.148438 6.945312 -28 9.375 -29.28125 C 11.800781 -30.570312 14.523438 -31.21875 17.546875 -31.21875 C 20.554688 -31.21875 23.273438 -30.570312 25.703125 -29.28125 C 28.128906 -28 30.039062 -26.148438 31.4375 -23.734375 C 32.832031 -21.328125 33.53125 -18.546875 33.53125 -15.390625 C 33.53125 -12.222656 32.820312 -9.4375 31.40625 -7.03125 C 29.988281 -4.625 28.054688 -2.773438 25.609375 -1.484375 C 23.171875 -0.203125 20.441406 0.4375 17.421875 0.4375 Z M 17.421875 -7.71875 C 19.222656 -7.71875 20.757812 -8.378906 22.03125 -9.703125 C 23.300781 -11.023438 23.9375 -12.921875 23.9375 -15.390625 C 23.9375 -17.847656 23.320312 -19.738281 22.09375 -21.0625 C 20.863281 -22.394531 19.347656 -23.0625 17.546875 -23.0625 C 15.703125 -23.0625 14.171875 -22.40625 12.953125 -21.09375 C 11.742188 -19.789062 11.140625 -17.890625 11.140625 -15.390625 C 11.140625 -12.921875 11.738281 -11.023438 12.9375 -9.703125 C 14.132812 -8.378906 15.628906 -7.71875 17.421875 -7.71875 Z M 17.421875 -7.71875 "/></g></g></g><g fill="#1a3e6e" fill-opacity="1"><g transform="translate(94.346541, 57.906063)"><g><path d="M 12.84375 -31.15625 L 12.84375 -23.328125 L 25.484375 -23.328125 L 25.484375 -16.046875 L 12.84375 -16.046875 L 12.84375 -7.5625 L 27.140625 -7.5625 L 27.140625 0 L 3.421875 0 L 3.421875 -38.71875 L 27.140625 -38.71875 L 27.140625 -31.15625 Z M 12.84375 -31.15625 "/></g></g></g><g fill="#1a3e6e" fill-opacity="1"><g transform="translate(124.180528, 57.906063)"><g><path d="M 1.546875 -15.4375 C 1.546875 -18.601562 2.140625 -21.378906 3.328125 -23.765625 C 4.523438 -26.160156 6.15625 -28 8.21875 -29.28125 C 10.28125 -30.570312 12.578125 -31.21875 15.109375 -31.21875 C 17.128906 -31.21875 18.976562 -30.796875 20.65625 -29.953125 C 22.332031 -29.109375 23.644531 -27.96875 24.59375 -26.53125 L 24.59375 -40.8125 L 34.03125 -40.8125 L 34.03125 0 L 24.59375 0 L 24.59375 -4.40625 C 23.71875 -2.9375 22.457031 -1.757812 20.8125 -0.875 C 19.175781 0 17.273438 0.4375 15.109375 0.4375 C 12.578125 0.4375 10.28125 -0.210938 8.21875 -1.515625 C 6.15625 -2.816406 4.523438 -4.671875 3.328125 -7.078125 C 2.140625 -9.492188 1.546875 -12.28125 1.546875 -15.4375 Z M 24.59375 -15.390625 C 24.59375 -17.742188 23.941406 -19.597656 22.640625 -20.953125 C 21.335938 -22.316406 19.75 -23 17.875 -23 C 16 -23 14.40625 -22.328125 13.09375 -20.984375 C 11.789062 -19.640625 11.140625 -17.789062 11.140625 -15.4375 C 11.140625 -13.082031 11.789062 -11.21875 13.09375 -9.84375 C 14.40625 -8.46875 16 -7.78125 17.875 -7.78125 C 19.75 -7.78125 21.335938 -8.457031 22.640625 -9.8125 C 23.941406 -11.175781 24.59375 -13.035156 24.59375 -15.390625 Z M 24.59375 -15.390625 "/></g></g></g><g fill="#1a3e6e" fill-opacity="1"><g transform="translate(161.624667, 57.906063)"><g><path d="M 33.8125 -30.78125 L 33.8125 0 L 24.375 0 L 24.375 -4.1875 C 23.414062 -2.832031 22.117188 -1.738281 20.484375 -0.90625 C 18.847656 -0.0820312 17.039062 0.328125 15.0625 0.328125 C 12.707031 0.328125 10.628906 -0.191406 8.828125 -1.234375 C 7.023438 -2.285156 5.625 -3.800781 4.625 -5.78125 C 3.632812 -7.769531 3.140625 -10.109375 3.140625 -12.796875 L 3.140625 -30.78125 L 12.515625 -30.78125 L 12.515625 -14.0625 C 12.515625 -12 13.046875 -10.398438 14.109375 -9.265625 C 15.179688 -8.128906 16.617188 -7.5625 18.421875 -7.5625 C 20.265625 -7.5625 21.71875 -8.128906 22.78125 -9.265625 C 23.84375 -10.398438 24.375 -12 24.375 -14.0625 L 24.375 -30.78125 Z M 33.8125 -30.78125 "/></g></g></g></g></g><g clip-path="url(#21fceec055)"><g transform="matrix(1, 0, 0, 1, 882, 432)"><g clip-path="url(#6c6d67400a)"><g clip-path="url(#b830107466)"><path fill="#1a3e6e" d="M 0.304688 17.023438 L 0.304688 0.125 L 11.871094 0.125 L 11.871094 17.023438 Z M 0.304688 17.023438 " fill-opacity="1" fill-rule="nonzero"/></g></g></g></g><g transform="matrix(1, 0, 0, 1, 299, 412)"><g clip-path="url(#c02a21a00f)"><g fill="#1a3e6e" fill-opacity="1"><g transform="translate(2.303455, 54.838894)"><g><path d="M 1.8125 -19.375 C 1.8125 -23.1875 2.632812 -26.585938 4.28125 -29.578125 C 5.9375 -32.578125 8.242188 -34.910156 11.203125 -36.578125 C 14.160156 -38.242188 17.507812 -39.078125 21.25 -39.078125 C 25.832031 -39.078125 29.753906 -37.863281 33.015625 -35.4375 C 36.285156 -33.019531 38.472656 -29.722656 39.578125 -25.546875 L 29.234375 -25.546875 C 28.460938 -27.160156 27.367188 -28.390625 25.953125 -29.234375 C 24.535156 -30.078125 22.929688 -30.5 21.140625 -30.5 C 18.242188 -30.5 15.894531 -29.488281 14.09375 -27.46875 C 12.289062 -25.445312 11.390625 -22.75 11.390625 -19.375 C 11.390625 -16 12.289062 -13.300781 14.09375 -11.28125 C 15.894531 -9.257812 18.242188 -8.25 21.140625 -8.25 C 22.929688 -8.25 24.535156 -8.671875 25.953125 -9.515625 C 27.367188 -10.367188 28.460938 -11.601562 29.234375 -13.21875 L 39.578125 -13.21875 C 38.472656 -9.03125 36.285156 -5.734375 33.015625 -3.328125 C 29.753906 -0.921875 25.832031 0.28125 21.25 0.28125 C 17.507812 0.28125 14.160156 -0.550781 11.203125 -2.21875 C 8.242188 -3.894531 5.9375 -6.21875 4.28125 -9.1875 C 2.632812 -12.164062 1.8125 -15.5625 1.8125 -19.375 Z M 1.8125 -19.375 "/></g></g></g><g fill="#1a3e6e" fill-opacity="1"><g transform="translate(44.240115, 54.838894)"><g><path d="M 32.375 -15.859375 C 32.375 -14.972656 32.316406 -14.050781 32.203125 -13.09375 L 10.90625 -13.09375 C 11.050781 -11.1875 11.664062 -9.726562 12.75 -8.71875 C 13.832031 -7.71875 15.160156 -7.21875 16.734375 -7.21875 C 19.078125 -7.21875 20.710938 -8.207031 21.640625 -10.1875 L 31.65625 -10.1875 C 31.132812 -8.164062 30.203125 -6.347656 28.859375 -4.734375 C 27.523438 -3.117188 25.847656 -1.851562 23.828125 -0.9375 C 21.816406 -0.0195312 19.5625 0.4375 17.0625 0.4375 C 14.050781 0.4375 11.367188 -0.203125 9.015625 -1.484375 C 6.671875 -2.765625 4.835938 -4.597656 3.515625 -6.984375 C 2.203125 -9.367188 1.546875 -12.160156 1.546875 -15.359375 C 1.546875 -18.546875 2.195312 -21.332031 3.5 -23.71875 C 4.800781 -26.101562 6.625 -27.9375 8.96875 -29.21875 C 11.320312 -30.507812 14.019531 -31.15625 17.0625 -31.15625 C 20.03125 -31.15625 22.671875 -30.53125 24.984375 -29.28125 C 27.296875 -28.03125 29.101562 -26.25 30.40625 -23.9375 C 31.71875 -21.632812 32.375 -18.941406 32.375 -15.859375 Z M 22.734375 -18.328125 C 22.734375 -19.941406 22.179688 -21.222656 21.078125 -22.171875 C 19.984375 -23.128906 18.609375 -23.609375 16.953125 -23.609375 C 15.378906 -23.609375 14.050781 -23.148438 12.96875 -22.234375 C 11.882812 -21.316406 11.210938 -20.015625 10.953125 -18.328125 Z M 22.734375 -18.328125 "/></g></g></g><g fill="#1a3e6e" fill-opacity="1"><g transform="translate(78.141663, 54.838894)"><g><path d="M 22.125 -31.046875 C 25.71875 -31.046875 28.585938 -29.878906 30.734375 -27.546875 C 32.890625 -25.222656 33.96875 -22.019531 33.96875 -17.9375 L 33.96875 0 L 24.609375 0 L 24.609375 -16.671875 C 24.609375 -18.734375 24.070312 -20.332031 23 -21.46875 C 21.9375 -22.601562 20.507812 -23.171875 18.71875 -23.171875 C 16.914062 -23.171875 15.484375 -22.601562 14.421875 -21.46875 C 13.359375 -20.332031 12.828125 -18.734375 12.828125 -16.671875 L 12.828125 0 L 3.40625 0 L 3.40625 -30.71875 L 12.828125 -30.71875 L 12.828125 -26.640625 C 13.773438 -27.992188 15.054688 -29.066406 16.671875 -29.859375 C 18.285156 -30.648438 20.101562 -31.046875 22.125 -31.046875 Z M 22.125 -31.046875 "/></g></g></g><g fill="#1a3e6e" fill-opacity="1"><g transform="translate(115.23524, 54.838894)"><g><path d="M 20.53125 -7.984375 L 20.53125 0 L 15.75 0 C 12.332031 0 9.671875 -0.832031 7.765625 -2.5 C 5.859375 -4.175781 4.90625 -6.898438 4.90625 -10.671875 L 4.90625 -22.90625 L 1.15625 -22.90625 L 1.15625 -30.71875 L 4.90625 -30.71875 L 4.90625 -38.203125 L 14.3125 -38.203125 L 14.3125 -30.71875 L 20.484375 -30.71875 L 20.484375 -22.90625 L 14.3125 -22.90625 L 14.3125 -10.5625 C 14.3125 -9.644531 14.53125 -8.984375 14.96875 -8.578125 C 15.414062 -8.179688 16.148438 -7.984375 17.171875 -7.984375 Z M 20.53125 -7.984375 "/></g></g></g><g fill="#1a3e6e" fill-opacity="1"><g transform="translate(137.579437, 54.838894)"><g><path d="M 12.828125 -25.59375 C 13.929688 -27.28125 15.304688 -28.609375 16.953125 -29.578125 C 18.609375 -30.554688 20.441406 -31.046875 22.453125 -31.046875 L 22.453125 -21.078125 L 19.875 -21.078125 C 17.519531 -21.078125 15.753906 -20.570312 14.578125 -19.5625 C 13.410156 -18.5625 12.828125 -16.789062 12.828125 -14.25 L 12.828125 0 L 3.40625 0 L 3.40625 -30.71875 L 12.828125 -30.71875 Z M 12.828125 -25.59375 "/></g></g></g><g fill="#1a3e6e" fill-opacity="1"><g transform="translate(161.134396, 54.838894)"><g><path d="M 33.75 -30.71875 L 33.75 0 L 24.328125 0 L 24.328125 -4.1875 C 23.378906 -2.820312 22.085938 -1.726562 20.453125 -0.90625 C 18.816406 -0.0820312 17.007812 0.328125 15.03125 0.328125 C 12.675781 0.328125 10.597656 -0.191406 8.796875 -1.234375 C 7.003906 -2.285156 5.613281 -3.800781 4.625 -5.78125 C 3.632812 -7.757812 3.140625 -10.085938 3.140625 -12.765625 L 3.140625 -30.71875 L 12.5 -30.71875 L 12.5 -14.03125 C 12.5 -11.976562 13.03125 -10.382812 14.09375 -9.25 C 15.15625 -8.113281 16.585938 -7.546875 18.390625 -7.546875 C 20.222656 -7.546875 21.671875 -8.113281 22.734375 -9.25 C 23.796875 -10.382812 24.328125 -11.976562 24.328125 -14.03125 L 24.328125 -30.71875 Z M 33.75 -30.71875 "/></g></g></g><g fill="#1a3e6e" fill-opacity="1"><g transform="translate(198.227972, 54.838894)"><g><path d="M 12.828125 -40.734375 L 12.828125 0 L 3.40625 0 L 3.40625 -40.734375 Z M 12.828125 -40.734375 "/></g></g></g><g fill="#1a3e6e" fill-opacity="1"><g transform="translate(214.463283, 54.838894)"><g/></g></g><g fill="#1a3e6e" fill-opacity="1"><g transform="translate(226.130716, 54.838894)"><g><path d="M 12.828125 -31.09375 L 12.828125 -23.28125 L 25.4375 -23.28125 L 25.4375 -16.015625 L 12.828125 -16.015625 L 12.828125 -7.546875 L 27.078125 -7.546875 L 27.078125 0 L 3.40625 0 L 3.40625 -38.640625 L 27.078125 -38.640625 L 27.078125 -31.09375 Z M 12.828125 -31.09375 "/></g></g></g><g fill="#1a3e6e" fill-opacity="1"><g transform="translate(255.904644, 54.838894)"><g><path d="M 1.546875 -15.40625 C 1.546875 -18.5625 2.140625 -21.332031 3.328125 -23.71875 C 4.523438 -26.101562 6.148438 -27.9375 8.203125 -29.21875 C 10.253906 -30.507812 12.546875 -31.15625 15.078125 -31.15625 C 17.097656 -31.15625 18.941406 -30.734375 20.609375 -29.890625 C 22.285156 -29.046875 23.597656 -27.910156 24.546875 -26.484375 L 24.546875 -40.734375 L 33.96875 -40.734375 L 33.96875 0 L 24.546875 0 L 24.546875 -4.40625 C 23.671875 -2.9375 22.414062 -1.757812 20.78125 -0.875 C 19.144531 0 17.242188 0.4375 15.078125 0.4375 C 12.546875 0.4375 10.253906 -0.210938 8.203125 -1.515625 C 6.148438 -2.816406 4.523438 -4.664062 3.328125 -7.0625 C 2.140625 -9.46875 1.546875 -12.25 1.546875 -15.40625 Z M 24.546875 -15.359375 C 24.546875 -17.703125 23.894531 -19.550781 22.59375 -20.90625 C 21.289062 -22.269531 19.703125 -22.953125 17.828125 -22.953125 C 15.960938 -22.953125 14.378906 -22.28125 13.078125 -20.9375 C 11.773438 -19.601562 11.125 -17.757812 11.125 -15.40625 C 11.125 -13.0625 11.773438 -11.203125 13.078125 -9.828125 C 14.378906 -8.453125 15.960938 -7.765625 17.828125 -7.765625 C 19.703125 -7.765625 21.289062 -8.441406 22.59375 -9.796875 C 23.894531 -11.148438 24.546875 -13.003906 24.546875 -15.359375 Z M 24.546875 -15.359375 "/></g></g></g><g fill="#1a3e6e" fill-opacity="1"><g transform="translate(293.27339, 54.838894)"><g><path d="M 33.75 -30.71875 L 33.75 0 L 24.328125 0 L 24.328125 -4.1875 C 23.378906 -2.820312 22.085938 -1.726562 20.453125 -0.90625 C 18.816406 -0.0820312 17.007812 0.328125 15.03125 0.328125 C 12.675781 0.328125 10.597656 -0.191406 8.796875 -1.234375 C 7.003906 -2.285156 5.613281 -3.800781 4.625 -5.78125 C 3.632812 -7.757812 3.140625 -10.085938 3.140625 -12.765625 L 3.140625 -30.71875 L 12.5 -30.71875 L 12.5 -14.03125 C 12.5 -11.976562 13.03125 -10.382812 14.09375 -9.25 C 15.15625 -8.113281 16.585938 -7.546875 18.390625 -7.546875 C 20.222656 -7.546875 21.671875 -8.113281 22.734375 -9.25 C 23.796875 -10.382812 24.328125 -11.976562 24.328125 -14.03125 L 24.328125 -30.71875 Z M 33.75 -30.71875 "/></g></g></g><g fill="#1a3e6e" fill-opacity="1"><g transform="translate(330.366966, 54.838894)"><g><path d="M 1.546875 -15.359375 C 1.546875 -18.546875 2.195312 -21.332031 3.5 -23.71875 C 4.800781 -26.101562 6.613281 -27.9375 8.9375 -29.21875 C 11.269531 -30.507812 13.941406 -31.15625 16.953125 -31.15625 C 20.804688 -31.15625 24.023438 -30.144531 26.609375 -28.125 C 29.203125 -26.101562 30.898438 -23.257812 31.703125 -19.59375 L 21.6875 -19.59375 C 20.84375 -21.945312 19.210938 -23.125 16.796875 -23.125 C 15.066406 -23.125 13.6875 -22.453125 12.65625 -21.109375 C 11.632812 -19.765625 11.125 -17.847656 11.125 -15.359375 C 11.125 -12.859375 11.632812 -10.9375 12.65625 -9.59375 C 13.6875 -8.257812 15.066406 -7.59375 16.796875 -7.59375 C 19.210938 -7.59375 20.84375 -8.769531 21.6875 -11.125 L 31.703125 -11.125 C 30.898438 -7.519531 29.191406 -4.691406 26.578125 -2.640625 C 23.972656 -0.585938 20.765625 0.4375 16.953125 0.4375 C 13.941406 0.4375 11.269531 -0.203125 8.9375 -1.484375 C 6.613281 -2.765625 4.800781 -4.597656 3.5 -6.984375 C 2.195312 -9.367188 1.546875 -12.160156 1.546875 -15.359375 Z M 1.546875 -15.359375 "/></g></g></g><g fill="#1a3e6e" fill-opacity="1"><g transform="translate(363.663133, 54.838894)"><g><path d="M 1.546875 -15.40625 C 1.546875 -18.5625 2.140625 -21.332031 3.328125 -23.71875 C 4.523438 -26.101562 6.148438 -27.9375 8.203125 -29.21875 C 10.253906 -30.507812 12.546875 -31.15625 15.078125 -31.15625 C 17.242188 -31.15625 19.144531 -30.710938 20.78125 -29.828125 C 22.414062 -28.953125 23.671875 -27.800781 24.546875 -26.375 L 24.546875 -30.71875 L 33.96875 -30.71875 L 33.96875 0 L 24.546875 0 L 24.546875 -4.34375 C 23.628906 -2.914062 22.351562 -1.757812 20.71875 -0.875 C 19.09375 0 17.195312 0.4375 15.03125 0.4375 C 12.53125 0.4375 10.253906 -0.210938 8.203125 -1.515625 C 6.148438 -2.816406 4.523438 -4.664062 3.328125 -7.0625 C 2.140625 -9.46875 1.546875 -12.25 1.546875 -15.40625 Z M 24.546875 -15.359375 C 24.546875 -17.703125 23.894531 -19.550781 22.59375 -20.90625 C 21.289062 -22.269531 19.703125 -22.953125 17.828125 -22.953125 C 15.960938 -22.953125 14.378906 -22.28125 13.078125 -20.9375 C 11.773438 -19.601562 11.125 -17.757812 11.125 -15.40625 C 11.125 -13.0625 11.773438 -11.203125 13.078125 -9.828125 C 14.378906 -8.453125 15.960938 -7.765625 17.828125 -7.765625 C 19.703125 -7.765625 21.289062 -8.441406 22.59375 -9.796875 C 23.894531 -11.148438 24.546875 -13.003906 24.546875 -15.359375 Z M 24.546875 -15.359375 "/></g></g></g><g fill="#1a3e6e" fill-opacity="1"><g transform="translate(401.03188, 54.838894)"><g><path d="M 20.53125 -7.984375 L 20.53125 0 L 15.75 0 C 12.332031 0 9.671875 -0.832031 7.765625 -2.5 C 5.859375 -4.175781 4.90625 -6.898438 4.90625 -10.671875 L 4.90625 -22.90625 L 1.15625 -22.90625 L 1.15625 -30.71875 L 4.90625 -30.71875 L 4.90625 -38.203125 L 14.3125 -38.203125 L 14.3125 -30.71875 L 20.484375 -30.71875 L 20.484375 -22.90625 L 14.3125 -22.90625 L 14.3125 -10.5625 C 14.3125 -9.644531 14.53125 -8.984375 14.96875 -8.578125 C 15.414062 -8.179688 16.148438 -7.984375 17.171875 -7.984375 Z M 14.921875 2.203125 C 15.648438 4.398438 16.015625 6.566406 16.015625 8.703125 C 16.015625 11.265625 15.363281 13.296875 14.0625 14.796875 C 12.757812 16.304688 10.84375 17.0625 8.3125 17.0625 L 8.3125 13.484375 C 10.21875 13.484375 11.171875 12.273438 11.171875 9.859375 L 11.171875 8.96875 L 7.703125 8.96875 L 7.703125 2.203125 Z M 14.921875 2.203125 "/></g></g></g><g fill="#1a3e6e" fill-opacity="1"><g transform="translate(423.376077, 54.838894)"><g><path d="M 8.140625 -33.90625 C 6.492188 -33.90625 5.144531 -34.390625 4.09375 -35.359375 C 3.050781 -36.335938 2.53125 -37.539062 2.53125 -38.96875 C 2.53125 -40.4375 3.050781 -41.65625 4.09375 -42.625 C 5.144531 -43.601562 6.492188 -44.09375 8.140625 -44.09375 C 9.753906 -44.09375 11.082031 -43.601562 12.125 -42.625 C 13.175781 -41.65625 13.703125 -40.4375 13.703125 -38.96875 C 13.703125 -37.539062 13.175781 -36.335938 12.125 -35.359375 C 11.082031 -34.390625 9.753906 -33.90625 8.140625 -33.90625 Z M 12.828125 -30.71875 L 12.828125 0 L 3.40625 0 L 3.40625 -30.71875 Z M 12.828125 -30.71875 "/></g></g></g><g fill="#1a3e6e" fill-opacity="1"><g transform="translate(439.611387, 54.838894)"><g><path d="M 17.390625 0.4375 C 14.378906 0.4375 11.671875 -0.203125 9.265625 -1.484375 C 6.867188 -2.765625 4.984375 -4.597656 3.609375 -6.984375 C 2.234375 -9.367188 1.546875 -12.160156 1.546875 -15.359375 C 1.546875 -18.515625 2.238281 -21.289062 3.625 -23.6875 C 5.019531 -26.09375 6.925781 -27.9375 9.34375 -29.21875 C 11.769531 -30.507812 14.488281 -31.15625 17.5 -31.15625 C 20.507812 -31.15625 23.222656 -30.507812 25.640625 -29.21875 C 28.066406 -27.9375 29.976562 -26.09375 31.375 -23.6875 C 32.769531 -21.289062 33.46875 -18.515625 33.46875 -15.359375 C 33.46875 -12.203125 32.757812 -9.421875 31.34375 -7.015625 C 29.9375 -4.609375 28.007812 -2.765625 25.5625 -1.484375 C 23.125 -0.203125 20.398438 0.4375 17.390625 0.4375 Z M 17.390625 -7.703125 C 19.191406 -7.703125 20.722656 -8.363281 21.984375 -9.6875 C 23.253906 -11.007812 23.890625 -12.898438 23.890625 -15.359375 C 23.890625 -17.816406 23.273438 -19.707031 22.046875 -21.03125 C 20.816406 -22.351562 19.300781 -23.015625 17.5 -23.015625 C 15.664062 -23.015625 14.144531 -22.359375 12.9375 -21.046875 C 11.726562 -19.742188 11.125 -17.847656 11.125 -15.359375 C 11.125 -12.898438 11.71875 -11.007812 12.90625 -9.6875 C 14.101562 -8.363281 15.597656 -7.703125 17.390625 -7.703125 Z M 17.390625 -7.703125 "/></g></g></g><g fill="#1a3e6e" fill-opacity="1"><g transform="translate(474.668692, 54.838894)"><g><path d="M 22.125 -31.046875 C 25.71875 -31.046875 28.585938 -29.878906 30.734375 -27.546875 C 32.890625 -25.222656 33.96875 -22.019531 33.96875 -17.9375 L 33.96875 0 L 24.609375 0 L 24.609375 -16.671875 C 24.609375 -18.734375 24.070312 -20.332031 23 -21.46875 C 21.9375 -22.601562 20.507812 -23.171875 18.71875 -23.171875 C 16.914062 -23.171875 15.484375 -22.601562 14.421875 -21.46875 C 13.359375 -20.332031 12.828125 -18.734375 12.828125 -16.671875 L 12.828125 0 L 3.40625 0 L 3.40625 -30.71875 L 12.828125 -30.71875 L 12.828125 -26.640625 C 13.773438 -27.992188 15.054688 -29.066406 16.671875 -29.859375 C 18.285156 -30.648438 20.101562 -31.046875 22.125 -31.046875 Z M 22.125 -31.046875 "/></g></g></g><g fill="#1a3e6e" fill-opacity="1"><g transform="translate(511.762269, 54.838894)"><g><path d="M 1.546875 -15.40625 C 1.546875 -18.5625 2.140625 -21.332031 3.328125 -23.71875 C 4.523438 -26.101562 6.148438 -27.9375 8.203125 -29.21875 C 10.253906 -30.507812 12.546875 -31.15625 15.078125 -31.15625 C 17.242188 -31.15625 19.144531 -30.710938 20.78125 -29.828125 C 22.414062 -28.953125 23.671875 -27.800781 24.546875 -26.375 L 24.546875 -30.71875 L 33.96875 -30.71875 L 33.96875 0 L 24.546875 0 L 24.546875 -4.34375 C 23.628906 -2.914062 22.351562 -1.757812 20.71875 -0.875 C 19.09375 0 17.195312 0.4375 15.03125 0.4375 C 12.53125 0.4375 10.253906 -0.210938 8.203125 -1.515625 C 6.148438 -2.816406 4.523438 -4.664062 3.328125 -7.0625 C 2.140625 -9.46875 1.546875 -12.25 1.546875 -15.40625 Z M 24.546875 -15.359375 C 24.546875 -17.703125 23.894531 -19.550781 22.59375 -20.90625 C 21.289062 -22.269531 19.703125 -22.953125 17.828125 -22.953125 C 15.960938 -22.953125 14.378906 -22.28125 13.078125 -20.9375 C 11.773438 -19.601562 11.125 -17.757812 11.125 -15.40625 C 11.125 -13.0625 11.773438 -11.203125 13.078125 -9.828125 C 14.378906 -8.453125 15.960938 -7.765625 17.828125 -7.765625 C 19.703125 -7.765625 21.289062 -8.441406 22.59375 -9.796875 C 23.894531 -11.148438 24.546875 -13.003906 24.546875 -15.359375 Z M 24.546875 -15.359375 "/></g></g></g><g fill="#1a3e6e" fill-opacity="1"><g transform="translate(549.131015, 54.838894)"><g><path d="M 12.828125 -40.734375 L 12.828125 0 L 3.40625 0 L 3.40625 -40.734375 Z M 12.828125 -40.734375 "/></g></g></g></g></g><g fill="#1a3e6e" fill-opacity="1"><g transform="translate(1086.060312, 469.577876)"><g><path d="M 17.890625 -38.640625 C 21.960938 -38.640625 25.519531 -37.832031 28.5625 -36.21875 C 31.613281 -34.601562 33.972656 -32.335938 35.640625 -29.421875 C 37.304688 -26.503906 38.140625 -23.140625 38.140625 -19.328125 C 38.140625 -15.546875 37.304688 -12.1875 35.640625 -9.25 C 33.972656 -6.3125 31.609375 -4.035156 28.546875 -2.421875 C 25.484375 -0.804688 21.929688 0 17.890625 0 L 3.40625 0 L 3.40625 -38.640625 Z M 17.28125 -8.140625 C 20.84375 -8.140625 23.613281 -9.113281 25.59375 -11.0625 C 27.570312 -13.007812 28.5625 -15.765625 28.5625 -19.328125 C 28.5625 -22.878906 27.570312 -25.644531 25.59375 -27.625 C 23.613281 -29.613281 20.84375 -30.609375 17.28125 -30.609375 L 12.828125 -30.609375 L 12.828125 -8.140625 Z M 17.28125 -8.140625 "/></g></g></g><g fill="#1a3e6e" fill-opacity="1"><g transform="translate(1126.068019, 469.577876)"><g><path d="M 17.390625 0.4375 C 14.378906 0.4375 11.671875 -0.203125 9.265625 -1.484375 C 6.867188 -2.765625 4.984375 -4.597656 3.609375 -6.984375 C 2.234375 -9.367188 1.546875 -12.160156 1.546875 -15.359375 C 1.546875 -18.515625 2.238281 -21.289062 3.625 -23.6875 C 5.019531 -26.09375 6.925781 -27.9375 9.34375 -29.21875 C 11.769531 -30.507812 14.488281 -31.15625 17.5 -31.15625 C 20.507812 -31.15625 23.222656 -30.507812 25.640625 -29.21875 C 28.066406 -27.9375 29.976562 -26.09375 31.375 -23.6875 C 32.769531 -21.289062 33.46875 -18.515625 33.46875 -15.359375 C 33.46875 -12.203125 32.757812 -9.421875 31.34375 -7.015625 C 29.9375 -4.609375 28.007812 -2.765625 25.5625 -1.484375 C 23.125 -0.203125 20.398438 0.4375 17.390625 0.4375 Z M 17.390625 -7.703125 C 19.191406 -7.703125 20.722656 -8.363281 21.984375 -9.6875 C 23.253906 -11.007812 23.890625 -12.898438 23.890625 -15.359375 C 23.890625 -17.816406 23.273438 -19.707031 22.046875 -21.03125 C 20.816406 -22.351562 19.300781 -23.015625 17.5 -23.015625 C 15.664062 -23.015625 14.144531 -22.359375 12.9375 -21.046875 C 11.726562 -19.742188 11.125 -17.847656 11.125 -15.359375 C 11.125 -12.898438 11.71875 -11.007812 12.90625 -9.6875 C 14.101562 -8.363281 15.597656 -7.703125 17.390625 -7.703125 Z M 17.390625 -7.703125 "/></g></g></g><g fill="#1a3e6e" fill-opacity="1"><g transform="translate(1161.122919, 469.577876)"><g><path d="M 42.609375 -31.046875 C 46.421875 -31.046875 49.457031 -29.890625 51.71875 -27.578125 C 53.976562 -25.265625 55.109375 -22.050781 55.109375 -17.9375 L 55.109375 0 L 45.75 0 L 45.75 -16.671875 C 45.75 -18.660156 45.222656 -20.195312 44.171875 -21.28125 C 43.128906 -22.363281 41.691406 -22.90625 39.859375 -22.90625 C 38.015625 -22.90625 36.570312 -22.363281 35.53125 -21.28125 C 34.488281 -20.195312 33.96875 -18.660156 33.96875 -16.671875 L 33.96875 0 L 24.609375 0 L 24.609375 -16.671875 C 24.609375 -18.660156 24.082031 -20.195312 23.03125 -21.28125 C 21.988281 -22.363281 20.550781 -22.90625 18.71875 -22.90625 C 16.882812 -22.90625 15.441406 -22.363281 14.390625 -21.28125 C 13.347656 -20.195312 12.828125 -18.660156 12.828125 -16.671875 L 12.828125 0 L 3.40625 0 L 3.40625 -30.71875 L 12.828125 -30.71875 L 12.828125 -26.859375 C 13.773438 -28.148438 15.019531 -29.171875 16.5625 -29.921875 C 18.101562 -30.671875 19.847656 -31.046875 21.796875 -31.046875 C 24.109375 -31.046875 26.171875 -30.550781 27.984375 -29.5625 C 29.804688 -28.570312 31.226562 -27.160156 32.25 -25.328125 C 33.320312 -27.015625 34.773438 -28.390625 36.609375 -29.453125 C 38.441406 -30.515625 40.441406 -31.046875 42.609375 -31.046875 Z M 42.609375 -31.046875 "/></g></g></g><g fill="#1a3e6e" fill-opacity="1"><g transform="translate(1219.401003, 469.577876)"><g><path d="M 22.125 -31.046875 C 25.71875 -31.046875 28.585938 -29.878906 30.734375 -27.546875 C 32.890625 -25.222656 33.96875 -22.019531 33.96875 -17.9375 L 33.96875 0 L 24.609375 0 L 24.609375 -16.671875 C 24.609375 -18.734375 24.070312 -20.332031 23 -21.46875 C 21.9375 -22.601562 20.507812 -23.171875 18.71875 -23.171875 C 16.914062 -23.171875 15.484375 -22.601562 14.421875 -21.46875 C 13.359375 -20.332031 12.828125 -18.734375 12.828125 -16.671875 L 12.828125 0 L 3.40625 0 L 3.40625 -30.71875 L 12.828125 -30.71875 L 12.828125 -26.640625 C 13.773438 -27.992188 15.054688 -29.066406 16.671875 -29.859375 C 18.285156 -30.648438 20.101562 -31.046875 22.125 -31.046875 Z M 22.125 -31.046875 "/></g></g></g><g fill="#1a3e6e" fill-opacity="1"><g transform="translate(1256.492058, 469.577876)"><g><path d="M 32.375 -15.859375 C 32.375 -14.972656 32.316406 -14.050781 32.203125 -13.09375 L 10.90625 -13.09375 C 11.050781 -11.1875 11.664062 -9.726562 12.75 -8.71875 C 13.832031 -7.71875 15.160156 -7.21875 16.734375 -7.21875 C 19.078125 -7.21875 20.710938 -8.207031 21.640625 -10.1875 L 31.65625 -10.1875 C 31.132812 -8.164062 30.203125 -6.347656 28.859375 -4.734375 C 27.523438 -3.117188 25.847656 -1.851562 23.828125 -0.9375 C 21.816406 -0.0195312 19.5625 0.4375 17.0625 0.4375 C 14.050781 0.4375 11.367188 -0.203125 9.015625 -1.484375 C 6.671875 -2.765625 4.835938 -4.597656 3.515625 -6.984375 C 2.203125 -9.367188 1.546875 -12.160156 1.546875 -15.359375 C 1.546875 -18.546875 2.195312 -21.332031 3.5 -23.71875 C 4.800781 -26.101562 6.625 -27.9375 8.96875 -29.21875 C 11.320312 -30.507812 14.019531 -31.15625 17.0625 -31.15625 C 20.03125 -31.15625 22.671875 -30.53125 24.984375 -29.28125 C 27.296875 -28.03125 29.101562 -26.25 30.40625 -23.9375 C 31.71875 -21.632812 32.375 -18.941406 32.375 -15.859375 Z M 22.734375 -18.328125 C 22.734375 -19.941406 22.179688 -21.222656 21.078125 -22.171875 C 19.984375 -23.128906 18.609375 -23.609375 16.953125 -23.609375 C 15.378906 -23.609375 14.050781 -23.148438 12.96875 -22.234375 C 11.882812 -21.316406 11.210938 -20.015625 10.953125 -18.328125 Z M 22.734375 -18.328125 "/></g></g></g><g fill="#1a3e6e" fill-opacity="1"><g transform="translate(1290.39131, 469.577876)"><g><path d="M 15.90625 0.4375 C 13.226562 0.4375 10.84375 -0.0195312 8.75 -0.9375 C 6.65625 -1.851562 5.003906 -3.109375 3.796875 -4.703125 C 2.585938 -6.296875 1.910156 -8.085938 1.765625 -10.078125 L 11.0625 -10.078125 C 11.175781 -9.015625 11.671875 -8.148438 12.546875 -7.484375 C 13.429688 -6.828125 14.515625 -6.5 15.796875 -6.5 C 16.972656 -6.5 17.878906 -6.726562 18.515625 -7.1875 C 19.160156 -7.644531 19.484375 -8.238281 19.484375 -8.96875 C 19.484375 -9.851562 19.023438 -10.503906 18.109375 -10.921875 C 17.191406 -11.347656 15.707031 -11.816406 13.65625 -12.328125 C 11.445312 -12.835938 9.609375 -13.378906 8.140625 -13.953125 C 6.671875 -14.523438 5.40625 -15.425781 4.34375 -16.65625 C 3.28125 -17.882812 2.75 -19.546875 2.75 -21.640625 C 2.75 -23.398438 3.234375 -25.003906 4.203125 -26.453125 C 5.179688 -27.898438 6.613281 -29.046875 8.5 -29.890625 C 10.394531 -30.734375 12.644531 -31.15625 15.25 -31.15625 C 19.101562 -31.15625 22.140625 -30.203125 24.359375 -28.296875 C 26.578125 -26.390625 27.851562 -23.859375 28.1875 -20.703125 L 19.484375 -20.703125 C 19.335938 -21.765625 18.867188 -22.609375 18.078125 -23.234375 C 17.296875 -23.859375 16.257812 -24.171875 14.96875 -24.171875 C 13.875 -24.171875 13.03125 -23.957031 12.4375 -23.53125 C 11.851562 -23.113281 11.5625 -22.535156 11.5625 -21.796875 C 11.5625 -20.921875 12.03125 -20.257812 12.96875 -19.8125 C 13.90625 -19.375 15.363281 -18.9375 17.34375 -18.5 C 19.613281 -17.90625 21.460938 -17.320312 22.890625 -16.75 C 24.328125 -16.1875 25.585938 -15.269531 26.671875 -14 C 27.753906 -12.738281 28.3125 -11.046875 28.34375 -8.921875 C 28.34375 -7.117188 27.835938 -5.507812 26.828125 -4.09375 C 25.828125 -2.6875 24.378906 -1.578125 22.484375 -0.765625 C 20.597656 0.0351562 18.40625 0.4375 15.90625 0.4375 Z M 18.765625 2.203125 C 19.503906 4.398438 19.875 6.566406 19.875 8.703125 C 19.875 11.265625 19.222656 13.296875 17.921875 14.796875 C 16.617188 16.304688 14.703125 17.0625 12.171875 17.0625 L 12.171875 13.484375 C 14.078125 13.484375 15.03125 12.273438 15.03125 9.859375 L 15.03125 8.96875 L 11.5625 8.96875 L 11.5625 2.203125 Z M 18.765625 2.203125 "/></g></g></g><g fill="#1a3e6e" fill-opacity="1"><g transform="translate(1321.098736, 469.577876)"><g><path d="M 20.53125 -7.984375 L 20.53125 0 L 15.75 0 C 12.332031 0 9.671875 -0.832031 7.765625 -2.5 C 5.859375 -4.175781 4.90625 -6.898438 4.90625 -10.671875 L 4.90625 -22.90625 L 1.15625 -22.90625 L 1.15625 -30.71875 L 4.90625 -30.71875 L 4.90625 -38.203125 L 14.3125 -38.203125 L 14.3125 -30.71875 L 20.484375 -30.71875 L 20.484375 -22.90625 L 14.3125 -22.90625 L 14.3125 -10.5625 C 14.3125 -9.644531 14.53125 -8.984375 14.96875 -8.578125 C 15.414062 -8.179688 16.148438 -7.984375 17.171875 -7.984375 Z M 20.53125 -7.984375 "/></g></g></g><g fill="#1a3e6e" fill-opacity="1"><g transform="translate(1343.441402, 469.577876)"><g><path d="M 8.140625 -33.90625 C 6.492188 -33.90625 5.144531 -34.390625 4.09375 -35.359375 C 3.050781 -36.335938 2.53125 -37.539062 2.53125 -38.96875 C 2.53125 -40.4375 3.050781 -41.65625 4.09375 -42.625 C 5.144531 -43.601562 6.492188 -44.09375 8.140625 -44.09375 C 9.753906 -44.09375 11.082031 -43.601562 12.125 -42.625 C 13.175781 -41.65625 13.703125 -40.4375 13.703125 -38.96875 C 13.703125 -37.539062 13.175781 -36.335938 12.125 -35.359375 C 11.082031 -34.390625 9.753906 -33.90625 8.140625 -33.90625 Z M 12.828125 -30.71875 L 12.828125 0 L 3.40625 0 L 3.40625 -30.71875 Z M 12.828125 -30.71875 "/></g></g></g></svg>